<svg height="512pt" viewBox="0 0 512 512.00485" width="512pt" xmlns="http://www.w3.org/2000/svg"><path d="m363.597656 128.714844c4.792969-9.234375 4.40625-20.300782-1.023437-29.175782-5.425781-8.875-15.101563-14.261718-25.503907-14.199218h-132.269531c-9.425781 0-17.066406 7.640625-17.066406 17.066406v20.777344c-112.570313 11.9375-187.73046875 51.15625-187.73046875 98.6875v51.199218c0 52.464844 93.86328175 94.523438 219.59374975 101.394532-4.421875 13.609375-10.988281 26.425781-19.453125 37.964844-29.382812 3.191406-106.277343 14.78125-106.277343 48.375 0 33.597656 81.5625 51.199218 162.136718 51.199218 80.570313 0 162.132813-17.585937 162.132813-51.199218 0-33.613282-76.894531-45.226563-106.273438-48.375-8.464843-11.539063-15.035156-24.355469-19.457031-37.964844 125.730469-6.871094 219.597656-48.929688 219.597656-101.394532v-51.199218c0-41.078125-57.710937-76.902344-148.40625-93.15625zm-13.730468-13.511719c-.015626 4.933594-2.847657 9.425781-7.292969 11.5625-4.507813 2.0625-9.792969 1.402344-13.65625-1.703125-.160157-.136719-.324219-.257812-.492188-.386719-2.640625-2.445312-4.144531-5.875-4.15625-9.472656v-12.796875h12.800781c7.066407 0 12.796876 5.730469 12.796876 12.796875zm-141.445313 95.90625c12.710937 12.433594 29.800781 19.363281 47.582031 19.296875h2.03125c23.160156-.972656 44.234375-13.679688 55.910156-33.707031 24.574219 6.527343 35.921876 15.84375 35.921876 21.964843 0 11.742188-36.5625 28.808594-93.863282 28.808594-57.304687 0-93.867187-17.066406-93.867187-28.808594 0-6.050781 11.09375-15.234374 35.15625-21.753906 3.066406 5.207032 6.808593 9.980469 11.128906 14.199219zm-3.621094-108.703125h102.402344v57.257812c.460937 28.300782-21.429687 51.953126-49.683594 53.675782-13.839843.410156-27.253906-4.804688-37.1875-14.449219-9.933593-9.648437-15.535156-22.90625-15.53125-36.753906zm95.78125 323.488281.058594.070313c10.101563 13.003906 22.246094 24.285156 35.960937 33.40625 3.917969 2.617187 9.21875 1.558594 11.832032-2.363282 2.617187-3.921874 1.558594-9.21875-2.363282-11.835937-5.953124-3.976563-11.585937-8.417969-16.835937-13.285156 48.863281 7.585937 71.835937 21.015625 71.835937 28.917969 0 11.578124-51.203124 34.132812-145.066406 34.132812-93.867187 0-145.066406-22.554688-145.066406-34.132812 0-7.902344 22.96875-21.375 71.832031-28.917969-5.25 4.867187-10.878906 9.308593-16.835937 13.285156-2.535156 1.691406-3.976563 4.609375-3.78125 7.652344.199218 3.042969 2.003906 5.746093 4.734375 7.097656 2.734375 1.351563 5.980469 1.140625 8.519531-.550781 13.710938-9.121094 25.855469-20.402344 35.957031-33.40625l.0625-.070313c11.808594-15.070312 20.570313-32.296875 25.804688-50.714843 6.195312.171874 12.441406.292968 18.773437.292968 6.332032 0 12.566406-.121094 18.773438-.292968 5.230468 18.417968 13.996094 35.644531 25.804687 50.714843zm194.355469-152.824219c0 41.207032-96.011719 85.335938-238.933594 85.335938-142.925781 0-238.933594-44.128906-238.933594-85.335938v-13.8125c36.617188 38.398438 128.542969 65.015626 238.933594 65.015626 110.386719 0 202.316406-26.617188 238.933594-65.007813zm-238.933594 34.132813c-142.925781 0-238.933594-44.125-238.933594-85.332031 0-36.335938 72.761719-70.714844 170.664063-81.519532v21.785157c.011719 6.429687.921875 12.828125 2.707031 19.003906-29.210937 8.363281-45.371094 21.53125-45.371094 37.546875 0 30.089844 55.808594 45.851562 110.933594 45.851562s110.933594-15.761718 110.933594-45.875c0-16.09375-16.359375-29.332031-45.929688-37.683593 2.152344-6.902344 3.253907-14.089844 3.261719-21.316407v-17.578124c7.023438 3.53125 15.207031 3.949218 22.554688 1.152343 87.285156 13.199219 148.113281 45.414063 148.113281 78.632813 0 41.207031-96.011719 85.332031-238.933594 85.332031zm0 0"/><path d="m237.144531 13.777344c1.871094-2.40625 2.316407-5.632813 1.167969-8.457032-1.152344-2.824218-3.722656-4.824218-6.742188-5.2382808-3.023437-.4179692-6.039062.8085938-7.910156 3.2148438l-9.941406 12.800781c-6.914062 8.824219-5.515625 21.554688 3.148438 28.664063 1.515624 1.0625 1.992187 3.09375 1.109374 4.71875l-3.480468 5.972656c-2.082032 4.042969-.625 9.007813 3.304687 11.289063 3.933594 2.28125 8.964844 1.078124 11.441407-2.738282l3.480468-5.972656c5.082032-8.738281 3.070313-19.871094-4.753906-26.273438-.839844-.558593-1.402344-1.445312-1.550781-2.445312-.144531-.996094.140625-2.011719.785156-2.785156zm0 0"/><path d="m271.277344 13.777344c1.871094-2.40625 2.316406-5.632813 1.167968-8.457032-1.152343-2.824218-3.722656-4.824218-6.742187-5.2382808-3.023437-.4179692-6.035156.8085938-7.910156 3.2148438l-9.941407 12.800781c-6.910156 8.824219-5.511718 21.554688 3.148438 28.664063 1.515625 1.0625 1.992188 3.09375 1.109375 4.71875l-3.480469 5.972656c-2.082031 4.042969-.625 9.007813 3.308594 11.289063s8.964844 1.078124 11.4375-2.738282l3.480469-5.972656c5.082031-8.738281 3.070312-19.871094-4.75-26.273438-.84375-.558593-1.40625-1.445312-1.554688-2.445312-.144531-.996094.140625-2.011719.785157-2.785156zm0 0"/><path d="m305.410156 13.777344c1.871094-2.40625 2.316406-5.632813 1.167969-8.457032-1.152344-2.824218-3.71875-4.824218-6.742187-5.2382808-3.023438-.4179692-6.035157.8085938-7.90625 3.2148438l-9.941407 12.800781c-6.914062 8.824219-5.515625 21.554688 3.148438 28.664063 1.511719 1.0625 1.988281 3.09375 1.109375 4.71875l-3.484375 5.972656c-2.078125 4.042969-.625 9.007813 3.308593 11.289063 3.933594 2.28125 8.964844 1.078124 11.4375-2.738282l3.480469-5.972656c5.082031-8.738281 3.070313-19.871094-4.75-26.273438-.84375-.558593-1.40625-1.445312-1.554687-2.445312-.144532-.996094.140625-2.011719.785156-2.785156zm0 0"/></svg>